<?xml version="1.0" standalone="no"?>
<!DOCTYPE svg PUBLIC "-//W3C//DTD SVG 1.1//EN" "http://www.w3.org/Graphics/SVG/1.1/DTD/svg11.dtd" >
<svg xmlns="http://www.w3.org/2000/svg">
<metadata>Generated by IcoMoon</metadata>
<defs>
<font id="kowo" horiz-adv-x="1024">
<font-face units-per-em="1024" ascent="960" descent="-64" />
<missing-glyph horiz-adv-x="1024" />
<glyph unicode="&#x20;" horiz-adv-x="512" d="" />
<glyph unicode="&#xe900;" glyph-name="driver" horiz-adv-x="892" d="M229.633 721.016c65.889-0.435 119.601 53.059 120.036 118.731 0.217 66.107-53.059 119.818-118.948 120.036-66.107 0.217-119.818-52.842-119.818-118.731-0.652-66.107 52.407-119.818 118.731-120.036zM143.956 672.088c0.652 0.652 1.305 1.305 1.957 2.175l-82.198 82.198-32.618-32.618 90.679-90.679c5.001 14.135 12.395 27.399 22.181 38.925zM373.589 466.81c13.7-14.135 33.488-21.528 54.581-18.701l207.453 29.357c17.831 2.609 32.836 12.178 42.621 25.66l-28.052-75.24c-4.567-12.178 1.74-25.877 13.917-30.444s25.877 1.74 30.444 13.917l79.154 212.454c4.567 12.178-1.74 25.877-13.917 30.444s-25.877-1.74-30.444-13.917l-39.142-105.249c0.435 4.567 0.217 9.351-0.435 14.352-5.001 34.793-37.185 59.148-71.978 54.147l-170.703-24.138-126.342 82.416c-62.41 75.24-203.974 27.399-185.49-90.244l63.062-314.876c0.435-2.609 1.087-5.001 1.74-7.611l181.141 181.141-7.611 36.533zM873.086 44.511l-275.734 275.952c-12.178 12.178-28.269 18.484-44.361 18.701 0.435 0.217 0.652 0.217 1.087 0.435l-155.046 0.217-7.394 36.533-170.051-170.051c18.701-22.615 47.188-37.837 83.721-37.837l263.992-0.217 213.759-213.759c24.79-24.79 65.237-24.79 90.027 0 25.007 24.79 25.007 65.237 0 90.027zM156.351 205.863c-4.132 9.351-7.394 19.136-9.351 29.357l-44.796 241.376c-13.917 76.979-115.034 58.496-100.9-18.484l43.274-240.289c16.744-87.2 80.024-162.44 171.138-189.622 23.485-6.741 47.405-10.22 70.673-10.22l153.959-0.652c78.067-0.217 78.719 102.204 0.87 101.769l-146.348 0.87c-16.092 1.087-32.618 1.74-48.928 6.741-25.442 7.611-47.188 21.746-64.15 40.012l39.577 39.577c-10.438 12.612-17.831 27.399-21.963 43.056l-43.056-43.491z" />
<glyph unicode="&#xe901;" glyph-name="edit" horiz-adv-x="1040" d="M793.497-64h-640.773c-84.217 0-152.724 68.507-152.724 152.724v640.773c0 84.217 68.507 152.724 152.724 152.724h640.773c30.648 0 60.266-9.014 85.505-26.012l84.732 84.732c12.105 12.105 27.042 19.058 40.95 19.058 9.787 0 19.058-3.606 25.497-10.302 16.483-16.483 12.62-45.070-9.014-66.447l-89.368-89.368c9.529-20.089 14.423-41.98 14.423-64.644v-640.773c0-83.96-68.507-152.467-152.724-152.467zM152.724 833.288c-57.175 0-103.533-46.358-103.533-103.533v-640.773c0-57.175 46.358-103.533 103.533-103.533h640.773c57.175 0 103.533 46.358 103.533 103.533v640.515c0 9.014-1.030 17.771-3.348 26.527l-368.547-368.547c-12.105-12.105-27.042-19.058-40.95-19.058v0c-9.787 0-19.058 3.606-25.497 10.302-9.529 9.529-12.62 23.179-8.499 37.859 2.833 10.044 9.014 20.089 17.256 28.33l375.759 375.501c-15.195 8.241-32.193 12.62-49.706 12.62l-640.773 0.258z" />
<glyph unicode="&#xe902;" glyph-name="either" horiz-adv-x="1189" d="M78.555 445.086l-56.168 56.168-22.255-22.255 62.129-62.129c3.312 9.803 8.346 18.811 15.102 26.759 0.265 0.53 0.662 0.927 1.192 1.457zM135.783 477.144c45.173-0.265 81.867 36.297 82.132 81.337 0.132 45.305-36.297 81.999-81.47 82.264-45.305 0.132-81.999-36.165-82.132-81.337-0.132-45.305 36.165-82.132 81.47-82.264zM207.582 624.186c17.221-17.354 26.627-40.404 26.494-64.778 0-6.094-0.662-11.922-1.855-17.619 4.239-0.795 8.611-1.192 13.247-1.192 40.139-0.265 72.859 32.323 73.124 72.329 0.132 40.271-32.323 72.991-72.462 73.124-29.541 0.132-54.975-17.354-66.5-42.523 10.2-4.636 19.738-11.128 27.951-19.341zM576.513 13.893l-188.771 188.903c-8.346 8.346-19.341 12.585-30.468 12.717 0.265 0.132 0.53 0.132 0.795 0.265l-106.109 0.132-4.239 21.46-175.656 169.165c-2.252-9.538-2.649-20.136-0.927-31.661l43.053-215.53c0.397-1.722 0.795-3.444 1.192-5.166l15.102-29.541c12.85-15.499 32.323-25.964 57.36-25.964l180.69-0.132 146.248-146.248c17.089-17.089 44.643-17.089 61.731 0 17.089 16.956 17.089 44.643 0 61.599zM236.196 294.334l-1.192 5.696-0.662 3.047-26.494 102.268c-3.444 24.507-9.935 31.263-9.935 31.263-28.879 34.707-82.264 31.131-110.216 0.397l148.5-142.671zM339.39 354.343l-1.855 9.14-3.842 19.473-0.53 2.649-23.58 91.008c-3.047 21.858-8.743 27.819-8.743 27.819-19.208 23.182-50.604 27.157-75.641 16.294-5.961-12.452-14.704-23.447-25.302-32.058l139.492-134.325zM637.45 128.348l-167.973 168.106c-7.418 7.418-17.221 11.26-27.024 11.392 0.265 0.132 0.397 0.132 0.662 0.265l-92.2 0.132-10.2-0.927-125.98 121.343c1.59-4.901 3.047-11.128 4.239-19.208l42.391-182.81c8.346 0 28.084-0.132 47.822-0.132 12.982 0 25.964-0.132 35.767-0.132 4.901 0 9.008 0 11.79 0 1.722 0 3.179 0 4.504-0.132v0.132c12.717-0.132 24.772-5.166 33.78-14.174l8.081-8.081h44.245l5.166-0.132 130.086-130.086c15.102-15.102 39.741-15.102 54.843 0 15.234 14.704 15.234 39.344 0 54.446zM785.817 779.707c40.139-0.265 72.859 32.323 73.124 72.329 0.132 40.271-32.455 72.991-72.594 73.124-40.271 0.132-72.991-32.19-72.991-72.329-0.265-40.404 32.19-73.124 72.462-73.124zM733.624 749.769c0.397 0.397 0.795 0.795 1.192 1.325l-50.074 50.074-19.871-19.871 55.24-55.24c3.047 8.743 7.551 16.824 13.512 23.712zM873.513 624.849c8.346-8.611 20.401-13.115 33.25-11.392l126.377 17.884c10.863 1.59 20.003 7.418 25.964 15.632l-17.089-45.835c-2.782-7.418 1.060-15.764 8.478-18.546s15.764 1.060 18.546 8.478l48.219 129.424c2.782 7.418-1.060 15.764-8.478 18.546s-15.764-1.060-18.546-8.478l-23.845-64.116c0.265 2.782 0.132 5.696-0.265 8.743-3.047 21.195-22.653 36.032-43.848 32.985l-103.99-14.704-76.966 50.206c-38.019 45.835-124.258 16.691-112.998-54.975l38.417-191.818c0.265-1.59 0.662-3.047 1.060-4.636l110.348 110.348-4.636 22.255zM1177.931 367.59l-168.106 167.973c-7.418 7.418-17.221 11.26-27.024 11.392 0.265 0.132 0.397 0.132 0.662 0.265l-94.452 0.132-4.504 22.255-103.592-103.592c11.392-13.777 28.746-23.050 51.001-23.050l160.82-0.132 130.086-130.086c15.102-15.102 39.741-15.102 54.843 0 15.367 15.102 15.367 39.609 0.265 54.843zM741.175 465.884c-2.517 5.696-4.504 11.657-5.696 17.884l-27.289 147.043c-8.478 46.895-70.077 35.635-61.466-11.26l26.362-146.38c10.2-53.121 48.749-98.956 104.255-115.515 14.307-4.107 28.879-6.226 43.053-6.226l93.789-0.397c47.557-0.132 47.954 62.261 0.53 61.996l-89.153 0.53c-9.803 0.662-19.871 1.060-29.806 4.107-15.499 4.636-28.746 13.247-39.079 24.375l24.11 24.11c-6.359 7.683-10.863 16.691-13.38 26.229l-26.229-26.494zM564.856 499.796c-3.179 1.722-7.816 2.649-13.909 2.649-1.457 0-2.649 0-3.709-0.132s-2.12-0.132-3.179-0.265v-23.050h5.431c7.153 0 12.32 0.927 15.499 2.649 3.047 1.855 4.636 4.901 4.636 9.273-0.132 4.239-1.722 7.153-4.769 8.876zM483.121 495.425c-1.987 2.384-4.239 4.239-7.153 5.564-2.782 1.325-5.961 1.987-9.538 1.987s-6.756-0.662-9.538-1.987c-2.782-1.325-5.166-3.179-7.021-5.696-1.987-2.384-3.444-5.299-4.372-8.743-1.060-3.444-1.59-7.153-1.59-11.26 0-4.239 0.53-7.948 1.59-11.26s2.517-6.226 4.372-8.611c1.987-2.384 4.239-4.239 7.021-5.564s5.961-1.987 9.538-1.987c3.577 0 6.756 0.662 9.538 1.987s5.166 3.179 7.153 5.564c1.987 2.384 3.444 5.299 4.372 8.611 1.060 3.312 1.59 7.153 1.59 11.26 0 4.239-0.53 7.948-1.59 11.392s-2.517 6.359-4.372 8.743zM508.423 613.324c-75.906 0-137.372-61.599-137.372-137.372 0-75.906 61.599-137.372 137.372-137.372 75.906 0 137.372 61.599 137.372 137.372 0.132 75.773-61.466 137.372-137.372 137.372zM505.509 456.081c-2.12-5.564-5.166-10.2-8.876-13.909s-8.213-6.491-13.512-8.478c-5.166-1.855-10.73-2.782-16.824-2.782-5.829 0-11.26 0.927-16.426 2.782s-9.67 4.636-13.512 8.478c-3.842 3.709-6.888 8.346-9.14 13.909s-3.312 11.922-3.312 19.208c0 7.286 1.192 13.645 3.444 19.208s5.431 10.2 9.273 13.909c3.842 3.709 8.346 6.624 13.512 8.478s10.465 2.782 16.161 2.782c5.829 0 11.26-0.927 16.426-2.782s9.67-4.769 13.512-8.478c3.842-3.709 6.888-8.478 9.14-13.909 2.252-5.564 3.312-11.922 3.312-19.208 0.132-7.286-0.927-13.645-3.179-19.208zM573.069 432.633c-1.59 2.782-3.179 5.564-4.769 8.478s-3.312 5.696-4.901 8.346c-1.722 2.649-3.312 5.299-5.034 7.683-1.59 2.384-3.312 4.636-4.901 6.624h-9.405v-31.131h-19.208v83.987c4.239 0.795 8.478 1.457 12.982 1.722s8.478 0.53 11.922 0.53c12.717 0 22.52-2.252 29.409-6.756 6.756-4.504 10.2-11.657 10.2-21.195 0-5.961-1.325-10.863-4.107-14.572s-6.756-6.624-11.922-8.743c1.722-2.12 3.577-4.504 5.431-7.286s3.709-5.564 5.564-8.611c1.855-3.047 3.577-6.094 5.299-9.273s3.312-6.359 4.769-9.538h-21.328z" />
<glyph unicode="&#xe903;" glyph-name="garden" horiz-adv-x="1237" d="M612.232-62.795c-3.132 0-6.024 0.482-8.915 1.687-5.783 2.409-10.12 6.987-12.288 12.77-24.094 62.645-23.612 126.735-18.552 186.97-225.521 55.416-207.932 197.813-207.932 197.813l19.757-1.687c115.17-20.48 171.55-60.958 198.295-100.232 7.71 60.476 15.661 128.181 14.216 204.077-33.25 3.614-59.031 17.107-73.005 38.792-7.228 11.083-11.083 24.094-11.324 37.828-12.77-7.228-26.744-10.601-40.96-9.397-30.6 2.65-60.235 26.022-80.715 64.090-18.793 34.936-23.13 68.909-12.047 95.654 5.542 13.493 14.697 24.576 26.985 33.009-12.77 7.951-22.167 19.034-27.949 32.768-11.565 27.949-5.542 62.886 16.384 98.786 20.721 33.732 47.947 54.453 76.619 58.308 14.456 1.928 28.431-0.482 41.683-6.505 0.241 15.42 5.060 29.395 13.975 41.201 18.312 24.094 51.802 36.864 94.208 35.659 39.273-1.205 69.632-13.493 87.703-35.9 9.397-11.565 14.938-25.299 16.143-40.237 13.493 6.264 27.949 8.433 42.647 6.024 28.19-4.578 53.971-24.576 74.692-58.067 22.408-36.382 28.19-71.8 16.384-99.75-5.783-13.493-15.42-24.576-28.19-32.286 12.288-8.192 21.444-19.275 27.226-32.768 11.324-26.744 7.228-60.958-12.047-96.136-19.998-37.346-47.706-59.994-77.583-63.849-14.697-1.928-29.395 0.964-42.888 8.433-1.205-13.734-5.783-26.504-13.734-37.587-14.216-19.516-37.587-32.286-67.704-37.105 0.723-39.755-0.964-76.619-3.614-108.905 30.359 33.491 85.775 66.5 185.284 84.088l11.083 1.928 2.65-10.842c0.482-1.687 10.12-42.406-19.275-87.462-32.045-49.634-96.858-83.848-192.271-101.918-11.806-93.485-21.685-174.441 6.264-247.928 4.337-11.806-0.964-25.058-12.529-30.118-2.409-0.482-5.542-1.205-8.674-1.205zM613.677-39.665v0 0zM393.216 308.977c-0.241-33.732 17.83-114.688 192.512-148.179l-7.71 28.19c-6.746 24.576-22.648 46.502-46.984 65.054-32.286 24.576-78.547 43.128-137.818 54.935zM625.724 255.006l1.928-13.252c84.811 16.866 144.083 47.706 171.791 89.871 15.42 23.612 17.83 45.297 17.589 57.826-124.808-24.576-168.177-73.969-182.633-111.797l-8.674-22.648zM572.235 619.55l-29.877-76.378c-7.951-20.239-7.228-38.31 1.928-52.284 11.324-17.348 34.455-27.467 65.295-28.672l9.638-0.482 11.324 0.964c28.19 2.409 50.116 12.529 61.681 28.431 9.156 12.77 11.806 28.913 7.469 46.984l-10.601 44.333 31.081-33.491c13.493-14.456 29.154-21.203 45.056-19.034 21.685 2.891 43.369 21.444 59.512 51.32 15.42 28.672 19.275 55.416 10.842 75.415-6.505 15.179-19.757 26.022-38.792 31.322l-46.020 12.77 46.743 10.36c19.275 4.337 32.768 14.456 39.032 29.395 8.674 20.239 3.132 48.67-14.697 77.583-16.625 26.985-37.105 43.61-57.826 46.984-15.179 2.409-30.6-2.409-44.092-13.975l-25.781-21.926 6.024 33.25c3.373 17.83-0.241 33.491-9.879 45.538-13.252 16.384-38.069 26.022-69.632 26.985-33.973 0.964-60.958-8.674-74.21-26.022-9.638-12.77-11.806-29.636-6.024-48.67l13.734-43.851-33.732 31.804c-13.975 13.252-29.877 19.034-46.020 17.107-21.203-2.891-42.406-19.516-59.272-46.984-17.589-28.672-23.13-56.862-14.697-77.101 6.024-14.697 19.034-24.817 37.828-29.395l42.888-10.601-42.406-12.77c-18.312-5.542-31.322-16.384-37.587-31.322-8.192-19.998-4.337-46.502 11.083-74.933 16.625-30.84 39.032-49.634 61.681-51.561 17.348-1.446 33.732 6.987 47.706 24.817l50.598 64.090zM618.978 610.394c-48.429 0-87.944 39.514-87.944 87.944s39.514 87.944 87.944 87.944 87.944-39.514 87.944-87.944-39.514-87.944-87.944-87.944zM618.978 762.187c-35.177 0-63.849-28.672-63.849-63.849s28.672-63.849 63.849-63.849 63.849 28.672 63.849 63.849-28.672 63.849-63.849 63.849zM181.911-63.036c-2.409 0-5.060 0.482-7.228 1.446-5.060 1.928-9.156 6.264-11.083 11.324-17.83 46.502-17.83 93.726-14.216 138.3-67.945 14.456-113.965 40.719-136.614 77.824-14.938 24.335-12.77 73.969-12.77 73.969l13.252-0.241c80.715-14.216 123.121-41.924 145.288-69.873 5.301 42.165 10.36 89.148 9.879 141.432-24.576 3.373-43.61 13.734-54.212 30.118-4.819 7.469-7.71 15.902-8.433 24.817-8.915-4.096-18.312-5.783-27.949-5.060-24.335 2.168-46.502 19.516-62.404 49.393-14.456 26.744-17.83 53.007-9.156 73.728 3.855 9.156 9.879 17.107 17.589 23.371-8.192 6.024-14.697 13.975-18.552 23.371-8.915 21.685-4.578 48.911 12.529 76.378 15.902 26.022 36.864 41.924 59.031 44.815 9.638 1.205 19.516 0 28.913-3.614 0.964 10.36 4.578 19.998 10.842 28.19 14.216 18.793 39.996 28.672 72.764 27.708 29.877-0.964 53.971-10.842 67.945-27.949 6.505-7.951 10.601-17.348 12.047-27.226 9.397 3.614 19.516 4.578 29.636 2.891 21.685-3.373 42.406-19.275 58.067-44.815 17.107-27.708 21.685-54.935 12.529-76.86-3.855-9.397-10.36-17.107-18.552-23.13 7.951-6.264 13.975-13.975 17.83-23.13 8.915-20.962 5.783-47.224-8.915-74.21-15.42-28.672-36.864-46.020-60.235-49.152-10.12-1.205-20.48 0.241-29.877 4.578-1.446-9.156-4.819-17.589-10.36-25.058-10.601-14.697-27.708-24.576-50.116-28.672 0.241-22.408-0.482-45.538-2.168-70.114 24.094 23.13 64.813 45.056 133.722 57.344l11.083 1.928 2.65-10.842c0.241-1.446 7.71-33.009-14.697-67.704-24.335-37.346-72.282-63.127-143.36-76.86-8.433-68.186-15.42-127.458 4.819-180.947 4.096-10.12-0.482-21.444-10.36-26.022-3.373-0.723-6.264-1.446-9.156-1.446zM22.167 213.323c0.482-8.915 2.65-21.444 11.083-34.936 19.275-31.563 62.404-54.935 125.289-67.704l-4.578 16.143c-8.192 28.913-37.828 66.982-131.795 86.498zM194.68 174.050l0.723-3.614c61.199 12.529 103.846 34.936 123.603 65.536 9.397 14.456 11.806 28.19 12.288 37.346-88.907-18.312-119.748-53.489-129.867-80.474l-6.746-18.793zM155.166 446.554l-22.167-55.898c-5.542-13.975-5.301-26.504 0.964-36.141 7.71-11.806 24.576-19.275 46.502-20.239l6.746-0.241 8.192 0.723c20.239 1.928 35.659 8.915 43.851 20.239 6.264 8.674 7.951 19.998 5.060 32.527l-10.601 44.333 31.081-33.491c9.397-10.12 20.239-14.697 31.081-13.252 15.179 1.928 30.6 15.179 41.924 36.623 11.083 20.48 13.975 39.514 7.951 53.489-4.337 10.36-13.734 17.83-26.744 21.444l-46.020 12.77 46.502 10.36c13.493 2.891 22.648 9.879 26.985 19.998 6.024 14.216 2.168 34.214-10.601 54.694-11.806 19.275-26.504 31.322-41.201 33.491-10.36 1.687-20.962-1.687-30.359-9.638l-25.781-21.685 6.264 33.491c2.168 12.288 0 22.889-6.746 31.322-9.397 11.565-26.985 18.312-49.875 19.034-24.335 0.723-43.61-6.024-52.766-18.312-6.746-8.674-7.951-20.239-3.855-33.491l13.493-43.61-33.25 31.322c-9.879 9.156-20.962 13.252-31.804 11.806-14.938-1.928-29.877-13.975-41.924-33.732-12.77-20.48-16.625-40.478-10.842-54.694 4.096-10.12 13.252-17.107 26.263-20.239l43.128-10.36-42.406-12.77c-12.77-3.855-21.685-11.324-26.022-21.685-5.783-13.975-2.891-32.768 7.951-53.248 11.806-22.167 27.708-35.418 43.369-36.864 14.938-1.205 26.263 8.674 33.009 17.348l37.346 47.224c-18.793 12.288-31.081 33.491-31.081 57.585 0 37.828 30.84 68.668 68.668 68.668s68.668-30.84 68.668-68.668-30.84-68.668-68.668-68.668c-11.806 0.482-22.648 3.373-32.286 8.433zM187.211 551.846c-24.576 0-44.574-19.998-44.574-44.574s19.998-44.574 44.574-44.574 44.574 19.998 44.574 44.574-19.998 44.574-44.574 44.574zM1044.721-63.036c-2.409 0-5.060 0.482-7.228 1.446-5.060 1.928-9.156 6.264-11.083 11.324-17.83 46.502-17.83 93.726-14.216 138.3-67.945 14.456-113.965 40.719-136.614 77.824-14.697 24.335-15.179 46.984-14.216 58.308l2.891 17.589 11.806-2.168c80.715-14.216 123.121-41.924 145.288-69.873 5.301 42.165 10.36 89.148 9.879 141.432-24.576 3.373-43.61 13.734-54.212 30.118-4.819 7.469-7.71 15.902-8.433 24.817-8.915-4.096-18.312-5.783-27.949-5.060-24.335 2.168-46.502 19.516-62.404 49.393-14.456 26.744-17.83 53.007-9.156 73.728 3.855 9.156 9.879 17.107 17.589 23.371-8.192 6.024-14.697 13.975-18.552 23.371-8.915 21.685-4.578 48.911 12.529 76.378 15.902 26.022 36.864 41.924 59.031 44.815 9.638 1.205 19.516 0 28.913-3.614 0.964 10.36 4.578 19.998 10.842 28.19 14.216 18.793 39.996 28.672 72.764 27.708 29.877-0.964 53.971-10.842 67.945-27.949 6.505-7.951 10.601-17.348 12.047-27.226 9.397 3.614 19.516 4.578 29.636 2.891 21.685-3.373 42.406-19.275 58.067-44.815 17.107-27.708 21.685-54.935 12.529-76.86-3.855-9.397-10.36-17.107-18.552-23.13 7.951-6.264 13.975-13.975 17.83-23.13 8.915-20.962 5.783-47.224-8.915-74.21-15.42-28.672-36.864-46.020-60.235-49.152-10.36-1.205-20.48 0.241-29.877 4.578-1.446-9.156-4.819-17.589-10.36-25.058-10.601-14.697-27.708-24.576-50.116-28.672 0.241-22.648-0.482-45.538-2.168-70.355 24.094 23.13 64.813 45.297 133.963 57.585l11.083 1.928 2.65-10.842c0.241-1.446 7.71-33.009-14.697-67.704-24.335-37.346-72.282-63.127-143.36-76.86-8.433-68.427-15.42-127.458 4.819-180.947v-0.241c3.614-9.879-1.205-21.203-10.842-25.781-3.132-0.723-6.024-1.446-8.915-1.446zM884.977 213.323c0.482-8.915 2.65-21.444 11.083-34.936 19.275-31.563 62.404-54.935 125.289-67.704l-4.578 16.143c-8.192 28.913-37.828 66.982-131.795 86.498zM1057.491 174.532l0.964-4.337c60.717 12.288 103.364 34.696 123.362 64.813 9.879 14.938 12.288 28.672 12.77 38.069-88.907-18.312-119.748-53.489-130.108-80.474l-6.987-18.071zM1018.217 446.554l-22.167-56.139c-5.542-13.975-5.301-26.504 0.964-36.141 7.71-11.806 24.576-19.275 46.502-20.239l6.746-0.241 8.192 0.723c20.239 1.928 35.659 8.915 43.851 20.239 6.264 8.674 7.951 19.998 5.060 32.527l-10.601 44.333 31.081-33.491c9.397-10.12 20.239-14.697 31.081-13.252 15.179 1.928 30.6 15.179 41.924 36.623 11.083 20.48 13.975 39.514 7.951 53.489-4.337 10.36-13.734 17.83-26.985 21.444l-46.020 12.77 46.502 10.36c13.493 2.891 22.648 9.879 26.985 19.998 6.024 14.216 2.168 34.214-10.601 54.694-11.806 19.275-26.504 31.322-41.201 33.491-10.601 1.687-20.962-1.687-30.359-9.638l-26.022-22.167 6.264 33.491c2.409 12.288 0 22.889-6.746 31.322-9.397 11.565-26.985 18.312-49.875 19.034-24.335 0.723-43.61-6.024-52.766-18.312-6.746-8.674-7.951-20.239-3.855-33.491l13.493-43.61-33.25 31.322c-9.879 9.156-20.962 13.252-31.804 11.806-14.938-1.928-29.877-13.975-41.924-33.732-12.77-20.48-16.625-40.478-10.842-54.694 4.096-10.12 13.252-17.107 26.263-20.239l43.128-10.36-42.406-12.77c-12.77-3.855-21.685-11.324-26.022-21.685-5.783-13.975-2.891-32.768 7.951-53.248 11.806-22.167 27.708-35.418 43.369-36.864 14.938-1.205 26.263 8.674 33.009 17.348l37.346 47.465c-18.793 12.288-31.322 33.491-31.322 57.344 0 37.828 30.84 68.668 68.668 68.668s68.668-30.84 68.668-68.668-30.84-68.668-68.668-68.668c-11.324 1.205-22.167 4.096-31.563 9.156zM1050.022 551.846c-24.576 0-44.574-19.998-44.574-44.574 0-24.335 19.998-44.333 44.574-44.574 24.576 0 44.574 19.998 44.574 44.574s-19.998 44.574-44.574 44.574z" />
<glyph unicode="&#xe904;" glyph-name="home" horiz-adv-x="1125" d="M1117.165 485.212l-540.52 468.541c-8.42 8.692-24.174 8.149-31.779-1.086l-537.532-467.726c-8.963-7.877-9.778-21.186-2.173-30.15 7.877-8.963 21.186-9.778 30.15-2.173l85.56 74.695v-570.398c0-11.68 9.507-21.458 21.458-21.458h279.495c11.68 0 21.186 9.507 21.186 21.458v283.569h236.851v-283.298c0-11.68 9.778-21.458 21.458-21.458h279.223c11.951 0 21.458 9.507 21.458 21.458v570.398l87.461-74.967c4.074-3.531 8.963-5.161 14.124-5.161 5.976 0 11.951 2.445 16.025 7.334 7.605 8.963 6.519 22.544-2.445 30.421zM959.355 556.104v-577.46h-236.851v283.298c0 11.68-9.507 21.458-21.186 21.458h-279.495c-11.951 0-21.458-9.778-21.458-21.458v-283.298h-236.579v577.46c0 2.445-0.543 4.889-1.358 7.334l398.735 347.128 399.279-347.128c-0.543-2.173-1.086-4.618-1.086-7.334z" />
<glyph unicode="&#xe905;" glyph-name="leaf" horiz-adv-x="985" d="M767.797 206.797c175.734 175.531 216.88 752.798 216.88 752.798s-119.183-62.024-309.713-78.239c-179.585-15.405-345.995-40.741-443.49-138.236-150.397-150.6-188.098-364.643-102.359-516.054 94.252 147.965 481.799 358.765 481.799 358.765-278.296-198.841-419.978-353.089-610.914-624.697l93.644-25.134c0 0 69.726 125.872 130.331 186.679 152.019-107.832 383.899-75.807 543.823 84.117z" />
<glyph unicode="&#xe906;" glyph-name="map" horiz-adv-x="973" d="M681.964 681.248c-48.518 0-87.995 39.477-87.995 87.995s39.477 87.995 87.995 87.995c48.518 0 87.995-39.477 87.995-87.995s-39.477-87.995-87.995-87.995zM681.964 448c0 0 182.922 228.125 182.922 329.078s-81.968 182.922-182.922 182.922c-100.954 0-182.922-81.968-182.922-182.922 0.301-100.954 182.922-329.078 182.922-329.078zM256.753 8.024l-190.154 78.352v544.245l190.154-78.352v-544.245zM972.77 19.174v688.593l-68.709 36.765c-5.123-19.287-13.561-40.381-23.807-62.38l25.916-18.985v-544.245l-190.154 78.352v246.809c-6.931-8.739-11.753-15.068-14.465-18.383l-19.588-24.41-19.588 24.41c-2.411 3.014-6.931 8.739-12.958 16.574v-272.424l-326.065-134.404v544.245l172.073 59.065c-10.849 20.793-20.191 41.285-27.423 60.873l-211.55-75.338-256.753 105.775v-688.593l256.753-105.775 459.263 189.25 257.055-105.775z" />
<glyph unicode="&#xe907;" glyph-name="passenger" horiz-adv-x="890" d="M107.761 629.449l-77.232 77.050-30.529-30.529 85.227-85.227c4.543 13.447 11.448 25.804 20.716 36.708 0.545 0.727 1.090 1.272 1.817 1.999zM186.264 673.425c61.967-0.363 112.304 49.792 112.667 111.577 0.182 62.149-49.792 112.486-111.759 112.849-62.149 0.182-112.486-49.61-112.667-111.577-0.182-62.149 49.61-112.667 111.759-112.849zM284.757 875.136c23.624-23.806 36.526-55.425 36.344-88.862 0-8.359-0.909-16.355-2.544-24.169 5.815-1.090 11.812-1.635 18.172-1.635 55.062-0.363 99.947 44.34 100.31 99.22 0.182 55.243-44.34 100.128-99.402 100.31-40.524 0.182-75.414-23.806-91.224-58.333 13.993-6.36 27.076-15.265 38.343-26.531zM790.851 37.946l-258.953 259.135c-11.448 11.448-26.531 17.264-41.796 17.445 0.363 0.182 0.727 0.182 1.090 0.363l-145.559 0.182-5.815 29.439-241.144 232.058c-3.089-13.084-3.634-27.622-1.272-43.431l59.241-295.661c0.545-2.362 1.090-4.725 1.635-7.087l20.716-40.524c17.627-21.261 44.34-35.617 78.685-35.617l247.868-0.182 200.62-200.62c23.442-23.442 61.24-23.442 84.682 0 23.442 23.26 23.442 61.24 0 84.5zM324.009 422.65l-1.635 7.814-0.909 4.18-36.344 140.289c-4.725 33.618-13.629 42.886-13.629 42.886-39.615 47.611-112.849 42.705-151.192 0.545l203.71-195.714zM465.57 504.97l-2.544 12.539-5.27 26.713-0.727 3.634-32.346 124.843c-4.18 29.984-11.994 38.161-11.994 38.161-26.35 31.801-69.418 37.253-103.763 22.352-8.177-17.082-20.171-32.165-34.709-43.977l191.353-184.265zM874.443 194.953l-230.423 230.604c-10.176 10.176-23.624 15.446-37.071 15.628 0.363 0.182 0.545 0.182 0.909 0.363l-126.478 0.182-13.993-1.272-172.817 166.275c2.181-6.724 4.18-15.265 5.815-26.35l58.151-250.776c11.448 0 38.525-0.182 65.601-0.182 17.809 0 35.617-0.182 49.065-0.182 6.724 0 12.357 0 16.173 0 2.362 0 4.361 0 6.179-0.182v0.182c17.445-0.182 33.982-7.087 46.339-19.444l11.085-11.085h60.695l7.087-0.182 178.45-178.814c20.716-20.716 54.516-20.716 75.233 0 20.898 20.716 20.898 54.516 0 75.233z" />
<glyph unicode="&#xe908;" glyph-name="rate" horiz-adv-x="1072" d="M752.395 288.295c16.442-16.747 43.542-17.356 60.289-0.913l246.637 240.547c11.571 11.266 15.833 28.318 10.657 43.542-4.872 15.529-18.269 26.795-34.407 28.927l-318.801 46.282-142.501 288.961c-7.308 14.616-21.923 23.75-38.366 23.75-16.138 0-31.058-9.135-38.366-23.75l-142.501-288.961-318.801-46.282c-16.138-2.436-29.536-13.702-34.407-28.927-4.872-15.529-0.913-32.276 10.657-43.542l230.803-225.018-54.199-317.279c-2.74-16.138 3.958-32.276 17.051-41.715 7.308-5.481 16.138-8.221 24.968-8.221 6.699 0 13.702 1.522 19.792 4.872l285.307 149.809 285.307-149.809c14.311-7.612 31.667-6.394 44.76 3.349 13.093 9.439 19.792 25.577 17.051 41.715l-19.487 114.184c-3.958 23.141-25.882 38.67-49.327 34.712-23.141-3.958-38.67-25.882-34.712-49.327l4.872-28.927-228.672 120.274c-12.484 6.394-27.404 6.394-39.584 0l-228.672-120.274 43.542 254.554c2.436 13.702-2.131 28.013-12.18 37.757l-184.825 180.258 255.467 37.148c14.007 2.131 25.882 10.657 31.971 23.446l114.184 231.717 114.184-231.717c6.090-12.484 18.269-21.314 31.971-23.446l255.467-37.148-184.825-180.258c-16.442-16.442-16.747-43.238-0.304-60.289z" />
<glyph unicode="&#xe909;" glyph-name="round-trip" horiz-adv-x="806" d="M799.129 694.445l-257.171 260.623c-6.904 6.411-17.753 6.164-24.41-0.247l-256.678-260.623c-4.685-5.178-5.918-12.575-3.205-18.739s9.123-10.109 15.78-10.109h110.956v-448.755c0-9.616 7.644-17.26 17.26-17.26h86.792l-214.761-218.213-215.008 218.213h87.039c9.616 0 17.26 7.644 17.26 17.26v233.007c0 9.616-7.644 17.26-17.26 17.26s-17.26-7.644-17.26-17.26v-215.748h-110.956c-6.904 0-13.068-3.945-15.78-10.109l-0.247-0.247c-2.712-6.164-1.479-13.315 3.205-18.493l256.678-260.377c2.959-3.452 7.644-5.425 12.328-5.425s9.123 1.726 12.328 5.178l256.678 260.623c4.685 5.178 5.918 12.575 3.205 18.739s-9.123 10.109-15.78 10.109h-110.956v448.755c0 9.616-7.644 17.26-17.26 17.26h-86.792l215.008 218.213 214.761-218.213h-86.792c-9.616 0-17.26-7.644-17.26-17.26v-233.007c0-9.616 7.644-17.26 17.26-17.26s17.26 7.644 17.26 17.26v215.748h110.956c6.904 0 13.068 3.945 15.78 10.109l0.247 0.247c2.466 6.411 1.233 13.561-3.205 18.739z" />
<glyph unicode="&#xe90a;" glyph-name="savings" horiz-adv-x="1059" d="M0 42.033h1059.344v-106.033h-1059.344v106.033zM847.525 395.231h141.131v-282.508h-141.131v282.508zM600.361 642.394h141.131v-529.672h-141.131v529.672zM106.033 960h141.131v-847.525h-141.131v847.525zM353.197 501.017h141.131v-388.542h-141.131v388.542z" />
<glyph unicode="&#xe90b;" glyph-name="tree" horiz-adv-x="842" d="M505.614-63.018h-237.744c-17.356 0-31.437 13.754-31.437 30.782v206.634l-18.011 15.391-110.030-2.62c-24.233 0-43.554 18.993-44.209 43.226-0.655 24.56 18.666 44.863 43.226 45.191l10.479 0.327-4.585 3.93c-9.169 7.532-14.736 18.338-15.391 30.455-0.982 11.789 2.947 23.25 10.479 32.092 4.257 4.912 9.169 8.514 14.736 11.134-71.716 29.8-122.474 100.533-122.474 183.383 0 57.307 23.905 110.685 66.476 148.017 5.894 152.274 131.971 274.748 284.899 274.748 100.533 0 191.57-51.74 243.311-136.555 26.198 19.321 58.945 28.817 91.692 25.87 63.857-5.567 115.925-58.29 121.164-122.474 1.637-18.666-0.655-37.332-6.877-55.015 25.87-37.004 39.296-80.558 39.296-126.731 0-120.509-95.294-219.078-214.166-223.662l-121.164-176.179 0.327-207.944zM275.73-23.721h190.588v180.764l139.502 203.032h11.789c101.516 0 184.038 82.85 184.038 184.693 0 40.934-13.099 79.575-37.987 111.667l-7.204 9.169 4.585 10.807c6.549 14.736 9.169 30.455 7.859 46.501-3.602 45.191-40.606 82.523-85.47 86.452-29.8 2.62-59.272-8.842-78.92-31.11l-19.321-21.941-13.099 26.198c-41.916 84.487-126.404 137.21-220.388 137.21-134.59 0-244.948-109.703-245.93-244.62v-9.169l-7.204-5.894c-37.332-30.127-58.945-75.318-58.945-123.456 0-87.435 71.061-158.823 158.168-158.823 18.011 0 35.039 2.947 50.758 8.514l26.525 9.497v-190.588l-130.333 111.667c-1.31 1.31-2.62 1.31-3.602 1.31s-2.292-0.327-3.602-1.637c-0.982-0.982-0.982-2.292-0.982-3.275 0-0.655 0.327-2.292 1.965-3.602l82.195-70.406-112.322-2.947c-2.62 0-4.912-2.292-4.912-5.24 0-2.62 2.292-4.585 4.912-4.585h0.327l123.784 3.275 42.899-37.004v-216.458zM179.454 339.444l56.652-48.466v51.413c-12.116-2.292-24.888-3.602-37.987-3.602-6.222-0.327-12.444 0-18.666 0.655zM466.318 183.895v247.568l32.42-27.508c20.303-17.356 43.226-29.472 67.786-36.349l27.18-7.532-127.386-176.179zM505.614 350.905v-45.846l24.233 33.729c-8.187 3.602-16.374 7.532-24.233 12.116z" />
<glyph unicode="&#xe90c;" glyph-name="warning" horiz-adv-x="1132" d="M565.975 659.563c-21.46 0-38.801-17.341-38.801-38.801v-291.766c0-21.46 17.341-38.801 38.801-38.801s38.801 17.341 38.801 38.801v291.766c0 21.46-17.341 38.801-38.801 38.801zM565.975 309.704v0 0 0zM612.796 181.595c0-25.859-20.963-46.821-46.821-46.821s-46.821 20.963-46.821 46.821c0 25.859 20.963 46.821 46.821 46.821s46.821-20.963 46.821-46.821zM1100.952 184.847l-391.262 677.175c-36.633 63.296-87.79 97.978-143.715 97.978s-107.082-34.682-143.715-97.978l-390.828-677.175c-36.633-63.296-41.185-124.857-13.006-173.412s83.888-75.434 156.721-75.434h782.090c72.833 0 128.542 26.879 156.721 75.434 27.963 48.339 23.411 109.9-13.006 173.412zM85.622 50.235c-13.656 23.411-8.887 57.443 13.006 95.81l391.045 677.175c21.893 38.151 48.989 59.177 76.301 59.177s54.408-21.026 76.301-59.177l391.045-677.175c21.893-38.367 26.662-72.4 13.006-95.81-13.656-23.627-45.521-36.633-89.524-36.633h-781.873c-44.003 0-75.868 13.006-89.307 36.633z" />
<glyph unicode="&#xe90d;" glyph-name="work" horiz-adv-x="1186" d="M390.755 959.893c-36.784 0-67.342-30.559-67.342-67.342v-94.223h-256.071c-36.784 0-67.342-30.559-67.342-67.342v-727.75c0-36.784 30.559-67.342 67.342-67.342h1051.163c36.784 0 67.342 30.559 67.342 67.342v727.75c0 36.784-30.559 67.342-67.342 67.342h-256.071v94.223c0 36.784-30.559 67.342-67.342 67.342h-404.337zM390.755 905.849h404.337c7.923 0 13.582-5.659 13.582-13.582v-94.223h-431.5v94.223c0 8.206 5.659 13.582 13.582 13.582zM67.342 744.284h1051.163c7.923 0 13.582-5.659 13.582-13.582v-275.877c-51.497-15.279-105.541-28.295-161.565-39.047v31.973c0 16.977-12.733 26.88-26.88 26.88h-107.804c-14.148 0-26.88-12.733-26.88-26.88v-56.024c-69.606-7.357-141.758-11.318-215.609-11.318s-145.72 4.244-215.609 11.884v55.458c0 14.148-12.733 26.88-26.88 26.88h-107.804c-14.713 0-26.88-14.713-26.88-26.88v-31.973c-56.307 10.752-110.351 24.051-161.565 39.047v275.877c-0.566 7.923 4.81 13.582 12.733 13.582zM269.652 420.871h53.761v-107.804h-53.761v107.804zM862.435 420.871h53.761v-107.804h-53.761v107.804zM54.044 398.518c51.78-14.713 105.824-27.163 161.565-37.35v-74.982c0-14.148 12.733-26.88 26.88-26.88h107.804c14.148 0 26.88 12.733 26.88 26.88v51.78c69.889-7.074 141.758-11.318 215.609-11.318s145.72 3.961 215.609 11.035v-51.497c0-14.148 12.733-26.88 26.88-26.88h107.804c14.148 0 26.88 12.733 26.88 26.88v74.416c56.024 10.469 110.068 23.202 161.565 37.915v-395.283c0-7.923-5.659-13.582-13.582-13.582h-1050.597c-7.923 0-13.582 5.659-13.582 13.582v395.283z" />
<glyph unicode="&#xe90e;" glyph-name="geolocalize" d="M511.86 918.021c125.656 0 243.476-48.975 332.471-137.69s137.69-206.815 137.69-332.471-48.975-243.476-137.69-332.471-206.815-137.69-332.471-137.69-243.476 48.975-332.471 137.69-137.41 207.095-137.41 332.751 48.975 243.476 137.69 332.471 206.815 137.41 332.191 137.41zM511.86 960c-282.656 0-511.86-229.204-511.86-511.86s229.204-511.86 511.86-511.86 512.14 228.924 512.14 511.86-229.204 511.86-512.14 511.86v0zM610.65 345.152l22.948 12.314 8.116 22.389 147.205 401.316-397.678-213.532-8.116-22.389-147.205-401.316 374.73 201.218zM603.094 417.076l-147.205 129.574 242.637 130.414-95.432-259.988zM421.746 508.030l147.205-129.574-242.637-130.414 95.432 259.988z" />
<glyph unicode="&#xe90f;" glyph-name="cancel" d="M511.86 918.021c125.656 0 243.476-48.975 332.471-137.69s137.69-206.815 137.69-332.471-48.975-243.476-137.69-332.471-206.815-137.69-332.471-137.69-243.476 48.975-332.471 137.69-137.41 207.095-137.41 332.751 48.975 243.476 137.69 332.471 206.815 137.41 332.191 137.41zM511.86 960c-282.656 0-511.86-229.204-511.86-511.86s229.204-511.86 511.86-511.86 512.14 228.924 512.14 511.86-229.204 511.86-512.14 511.86v0zM712.238 619.413l-33.583 33.863-166.795-166.795-166.515 166.795-33.583-33.863 166.515-166.515-166.515-166.515 33.583-33.583 166.515 166.515 166.795-166.515 33.583 33.583-166.515 166.515z" />
<glyph unicode="&#xe910;" glyph-name="settings" horiz-adv-x="1023" d="M590.088 960h-156.698c-9.11 0-16.399-7.549-16.399-16.399v-86.938c-45.552-10.672-88.5-28.632-127.024-52.58l-61.69 61.43c-3.124 3.124-7.549 4.685-11.713 4.685s-8.329-1.562-11.713-4.685l-110.625-110.886c-6.507-6.507-6.507-16.919 0-23.427l61.43-61.43c-24.207-38.524-42.168-81.212-52.58-127.024h-86.938c-9.11 0-16.399-7.549-16.399-16.399v-156.698c0-9.11 7.549-16.399 16.399-16.399h86.938c10.672-45.552 28.632-88.5 52.58-127.024l-61.43-61.43c-6.507-6.507-6.507-16.919 0-23.427l110.886-110.625c3.124-3.124 7.549-4.685 11.713-4.685s8.329 1.562 11.713 4.685l61.43 61.43c38.524-24.207 81.212-42.168 127.024-52.58v-86.938c0-9.11 7.549-16.399 16.399-16.399h156.698c9.11 0 16.399 7.549 16.399 16.399v86.938c45.552 10.672 88.5 28.632 127.024 52.58l61.43-61.43c3.124-3.124 7.549-4.685 11.713-4.685s8.329 1.562 11.713 4.685l110.886 110.886c6.507 6.507 6.507 16.919 0 23.427l-61.43 61.43c24.207 38.524 42.168 81.212 52.58 127.024h86.938c9.11 0 16.399 7.549 16.399 16.399v156.698c0 9.11-7.549 16.399-16.399 16.399h-86.938c-10.672 45.552-28.632 88.5-52.58 127.024l61.43 61.43c6.507 6.507 6.507 16.919 0 23.427l-110.886 110.886c-3.124 3.124-7.549 4.685-11.713 4.685s-8.329-1.562-11.713-4.685l-61.43-61.43c-38.524 23.687-81.472 41.647-127.024 52.319v86.938c0 9.11-7.288 16.399-16.399 16.399v0zM511.74 295.207c-84.336 0-152.793 68.458-152.793 152.793s68.458 152.793 152.793 152.793 152.793-68.458 152.793-152.793-68.458-152.793-152.793-152.793v0z" />
<glyph unicode="&#xe911;" glyph-name="send-evidence" horiz-adv-x="1119" d="M1074.467 956.744l-1055.746-477.812c-22.792-10.582-25.234-42.328-4.070-56.165l179.078-113.145c5.698-4.070 10.582-9.768 13.024-16.28l73.259-206.754c8.14-21.978 36.63-28.49 52.909-11.396l86.283 88.725 232.801-218.963c16.28-15.466 42.328-9.768 51.281 10.582l413.507 960.509c11.396 26.048-15.466 52.909-42.328 40.7zM984.928 837.901l-642.238-596.655c-3.256-3.256-4.884-6.512-5.698-10.582l-27.676-131.052c0-1.628-2.442-1.628-3.256 0l-70.817 220.591 744.801 523.396c3.256 1.628 7.326-3.256 4.884-5.698z" />
<glyph unicode="&#xe912;" glyph-name="my-rides" horiz-adv-x="1215" d="M111.686-64c-16.314 0-31.791 9.621-38.484 25.516-9.203 21.333 0.837 46.013 22.17 54.797l500.706 213.752-94.118 48.523c-14.641 7.529-23.425 22.588-22.588 38.484 0.418 16.314 10.458 30.536 25.516 36.81l582.693 248.889c21.333 9.203 46.013-0.837 54.797-22.17s-0.837-46.013-22.17-54.797l-501.124-213.333 94.118-48.523c14.641-7.529 23.425-22.588 22.588-38.484-0.418-16.314-10.458-30.536-25.516-36.81l-581.856-248.889c-5.438-2.51-10.876-3.765-16.732-3.765zM1215.163 848.314c0 61.908-50.196 111.686-111.686 111.686-61.908 0-112.105-50.196-112.105-111.686 0-23.007 7.111-44.758 19.242-62.745l92.863-142.222 92.863 142.222c11.712 17.987 18.824 39.32 18.824 62.745zM1103.059 784.732c-34.301 0-62.327 28.026-62.327 62.327s28.026 62.327 62.327 62.327c34.301 0 62.327-28.026 62.327-62.327s-27.608-62.327-62.327-62.327zM223.791 266.876c0 61.908-50.196 111.686-111.686 111.686s-112.105-50.196-112.105-111.686c0-23.007 7.111-44.758 19.242-62.745l92.863-142.222 92.863 142.222c11.712 17.987 18.824 39.32 18.824 62.745zM111.686 203.294c-34.301 0-62.327 28.026-62.327 62.327s28.026 62.327 62.327 62.327 62.327-28.026 62.327-62.327c0-34.301-27.608-62.327-62.327-62.327z" />
<glyph unicode="&#xe913;" glyph-name="logout" horiz-adv-x="783" d="M561.653 25.539h-472.114v844.922h472.114v-134.308c0-8.14 6.512-13.838 13.838-13.838h61.863c8.14 0 13.838 6.512 13.838 13.838v190.474c0 17.908-15.466 33.374-33.374 33.374h-584.445c-17.908 0-33.374-15.466-33.374-33.374v-956.439c0-18.722 15.466-33.374 33.374-33.374h584.445c18.722 0 33.374 15.466 33.374 33.374v189.66c0 8.14-6.512 13.838-13.838 13.838h-61.863c-8.14 0-13.838-6.512-13.838-13.838v-134.308zM615.377 672.661l-29.304-19.536c-8.954-5.698-11.396-17.094-4.884-26.048l94.423-142.448h-420.833c-10.582 0-18.722-8.14-18.722-18.722v-35.816c0-10.582 8.14-18.722 18.722-18.722h420.019l-94.423-142.448c-5.698-8.954-3.256-20.35 4.884-26.048l29.304-19.536c8.954-5.698 20.35-3.256 26.048 4.884l138.378 209.196c4.070 6.512 4.070 14.652 0 21.164l-138.378 209.196c-4.884 8.14-17.094 10.582-25.234 4.884z" />
<glyph unicode="&#xe914;" glyph-name="travel" horiz-adv-x="1007" d="M1007.213 960l-1007.213-530.745 329.023-169.827 180.459-323.427z" />
</font>
</defs>
</svg>
